/* XPM */
static char *_89f5987899945e3b59496aa268ffaa0LBBT63DG3Wfvx6rj[] = {
/* columns rows colors chars-per-pixel */
"64 64 245 2 ",
"   c #3A0C0A",
".  c #3A120E",
"X  c #3C1413",
"o  c #3C1A16",
"O  c #2E120F",
"+  c #3C2419",
"@  c #450C0C",
"#  c #43120D",
"$  c #480F11",
"%  c #441513",
"&  c #4C1414",
"*  c #4B1A15",
"=  c #451B1A",
"-  c #4C1C1B",
";  c #451A16",
":  c #531C1B",
">  c #5B1C1D",
",  c #541716",
"<  c #500C0D",
"1  c #69181B",
"2  c #73151B",
"3  c #7A171D",
"4  c #790F16",
"5  c #44221D",
"6  c #4C231D",
"7  c #49261C",
"8  c #53221E",
"9  c #5A211D",
"0  c #66231E",
"q  c #4C1E22",
"w  c #571E22",
"e  c #6C1C21",
"r  c #781B23",
"t  c #4C2323",
"y  c #4A2824",
"u  c #542422",
"i  c #5C2423",
"p  c #532A25",
"a  c #5C2A26",
"s  c #542B2A",
"d  c #5C2C2B",
"f  c #592629",
"g  c #5B322C",
"h  c #59382A",
"j  c #5C3433",
"k  c #5B3A35",
"l  c #4B3327",
"z  c #622525",
"x  c #622A25",
"c  c #642C2B",
"v  c #6C2C2C",
"b  c #692627",
"n  c #742325",
"m  c #732C2D",
"M  c #7C272B",
"N  c #63322E",
"B  c #6B332E",
"V  c #643B2D",
"C  c #692E31",
"Z  c #752D31",
"A  c #633433",
"S  c #6C3433",
"D  c #643A35",
"F  c #6B3A35",
"G  c #653A3A",
"H  c #6D3C3A",
"J  c #6C3539",
"K  c #733434",
"L  c #7B3335",
"P  c #733C3B",
"I  c #7B3C3C",
"U  c #773837",
"Y  c #71332D",
"T  c #5D4235",
"R  c #644334",
"E  c #6C423C",
"W  c #684639",
"Q  c #73423D",
"!  c #7C413E",
"~  c #744C3C",
"^  c #74503A",
"/  c #793E42",
"(  c #6C3E40",
")  c #6E4643",
"_  c #744443",
"`  c #7C4444",
"'  c #7B4A45",
"]  c #7C4B4B",
"[  c #764846",
"{  c #7B574A",
"}  c #7A5653",
"|  c #76504A",
" . c #7E6151",
".. c #82191E",
"X. c #861D26",
"o. c #9C1B25",
"O. c #9D1D2A",
"+. c #961A26",
"@. c #A31C26",
"#. c #A41E2B",
"$. c #A91E2D",
"%. c #A31426",
"&. c #AC1E2F",
"*. c #892429",
"=. c #94232C",
"-. c #9B232C",
";. c #98272B",
":. c #8C2D33",
">. c #802E30",
",. c #942B33",
"<. c #9C2B34",
"1. c #992834",
"2. c #823435",
"3. c #833B3D",
"4. c #8A3C3C",
"5. c #883538",
"6. c #943235",
"7. c #9C3236",
"8. c #94343B",
"9. c #9C343B",
"0. c #943A3D",
"q. c #9B3A3D",
"w. c #92312F",
"e. c #A3222D",
"r. c #AA242E",
"t. c #A5292E",
"y. c #A9292C",
"u. c #B3222E",
"i. c #A42531",
"p. c #AB2432",
"a. c #A42B34",
"s. c #AB2A34",
"d. c #A42D3A",
"f. c #AB2D39",
"g. c #B32534",
"h. c #B12A35",
"j. c #B42B3A",
"k. c #A33235",
"l. c #A4333B",
"z. c #AB333C",
"x. c #A93538",
"c. c #B3343D",
"v. c #85413E",
"b. c #96463D",
"n. c #893D43",
"m. c #943D43",
"M. c #9C3C43",
"N. c #9D3A46",
"B. c #A43C43",
"V. c #AC3C44",
"C. c #A83844",
"Z. c #B33646",
"A. c #834444",
"S. c #8B4345",
"D. c #844A44",
"F. c #844C4B",
"G. c #8B4C4B",
"H. c #8A4748",
"J. c #924346",
"K. c #9B4344",
"L. c #93454B",
"P. c #9C444B",
"I. c #934B4C",
"U. c #9C4A4D",
"Y. c #914B45",
"T. c #84524C",
"R. c #8B534D",
"E. c #99524D",
"W. c #894E51",
"Q. c #9C4C52",
"!. c #934D52",
"~. c #845352",
"^. c #8B5352",
"/. c #8A5A58",
"(. c #945454",
"). c #9B5454",
"_. c #9C555A",
"`. c #945B5B",
"'. c #9B5B5C",
"]. c #975857",
"[. c #A24445",
"{. c #AB4146",
"}. c #A3444B",
"|. c #AC434C",
" X c #A34B4C",
".X c #AB4B4D",
"XX c #B3464C",
"oX c #A44B52",
"OX c #AA4952",
"+X c #B64C54",
"@X c #A25255",
"#X c #AB5255",
"$X c #AC545A",
"%X c #A35B5D",
"&X c #A7585A",
"*X c #B25256",
"=X c #B35A5D",
"-X c #B5565B",
";X c #866555",
":X c #97635D",
">X c #85604D",
",X c #A4625E",
"<X c #B2635F",
"1X c #9A5C60",
"2X c #AD5E62",
"3X c #A55D61",
"4X c #B75C62",
"5X c #9C6363",
"6X c #996665",
"7X c #9A716D",
"8X c #A36464",
"9X c #AB6364",
"0X c #A4656A",
"qX c #AB6469",
"wX c #A46A6A",
"eX c #AC6B6C",
"rX c #A16966",
"tX c #B46264",
"yX c #B46469",
"uX c #B26B6C",
"iX c #BA6B6D",
"pX c #B86567",
"aX c #A9716E",
"sX c #AA6D71",
"dX c #B46E72",
"fX c #BB6D73",
"gX c #B96670",
"hX c #AD7372",
"jX c #AA7676",
"kX c #B47373",
"lX c #BB7474",
"zX c #B57A7C",
"xX c #BC7B7B",
"cX c #B9757A",
"vX c #B9716D",
"bX c #C06E73",
"nX c #C47679",
"mX c #C2686C",
"MX c #BA817F",
"NX c #C7807E",
"BX c #B57C82",
"VX c #C57D82",
"CX c #BC8384",
"ZX c #C68487",
"AX c #D18287",
/* pixels */
"W W R W R R h R  . . .;X)  .{ ;X;XW T h h T k W R R R T h R W h W W V W ~ ^ ~ h R R R R h T R h V W T l T T k h { >X;X^ :X;X^ >X",
">XT ) ~ ` Q Q F E Q Q ~ l { v.D.v.Q W ^ L v D.) W ] ' ' H A ) k D R V N R.(./.T.T.(.R.E.D.D.T.~ ' ] ~.R ] H ~ Q ' ! F D R T W ~ ",
">Xg D W.C A.H.%XE.v.).,XB R.v.E.&XY v.6.*.;.8.Y * 8X].I W.`.sX] E :X(.a R.3.].B v.Y.q.{.b.v.R.A.%X` 6XC qX!.! wXqXuX%X` D j R.].",
"/.8 X A u u 8X3X,Xv Y rXI rX9 F x 0 [.w.t.-.k.[.b - H w 0XkXhX] u aXlXkXa p Q , U.B.<.k.;.k.b.@ ~ Q k ] jX5X9 3.uXhX^.f s % U :X",
"N A.K   t q : !.I.v.v.'.a f S 6 # &X*.@.r.@.#.=. X  ; u - I '.P (.G.1X, p p * S.q.a.e.t.p.e.6.B ; 8 s = rXH.(.G.].v - f % , G.].",
"F '.L.K H t c S.tX X&XeXu ` a B Y..Xo.y.#.@.r.#.l.G.A D P w lX(.8XqXQ.C p H B #Xe.y.r.y.r.p.;.U.v ` s u 1XbX$XfX8XN S f - oX0._.",
"B I.1.P.F & ` 8XtX X2XeXH G e m .X<.-.t.e.@.a.+.=.oXZ C j 1XxX^.'.lXlXF.X J oX9.y.c.@.k.s.y.i.l.K.` = k zXpX[.tXdX].d G c XXw.E.",
"g U.-.<. Xv.< ; J.2X3XH X x m.[.=.e.-.k..XU.B.O.e.=.N.L.> & J `.sX].& @ S.|.7.e.y.x.q..XXXa.e.o.x.Q./ X u _.pXfX, & 1 n.m.-.*.E.",
"s m.-.@.=.=.P.` < ` D f a  X+.;.#.O.*.8.u c >.1.e.-.O.=.B.A.s t } & _ &XC.$.p.p.e.V., x n B.1.o.e.i.8.L H % 1Xd : ).8.=.O.O.X.(.",
"6 J.=.o.-.=.6.Y U : p A.a q.-.;.O.,.4.J.F : %Xm.7.-.i.#.1.m./ s y A.Z V.i.#.$.i.8.I.G.& W.P.N.+.$.O.:.r K ` t g S P.=.-.+.O.X.(.",
"p J.=.o.y.=.O.=.K.Y R.}.e C.e.-.-.,.x U p j J C U.e.e.#.&.d.*XP _ #X<.r.p.O.u.z.3.P w ( j C m.X.e.1.,.r N.Q.w J.9.i.#.e.;.e.r I.",
"a 3.=.@.e.-.o.-.;.2.Y.<.2 <.O.-.a.6.m 8 E G c d &Xp.i.$.&.i.C.n.G.<.l.y.s.s.&.a.5.i d G s f L.=.i.-.1.3 <.8.M N.-.&.&.-.+.O.*.(.",
"F J.-.e.p.t.-.6.K.K P Q.e 9.#.;.i.,.5.(.H w sXG..Xa.a.r.s.x.*XP [  Xz.x.x.h.t.<.7.Q.] f H.I.|.-.p.$.:.r B.Q.i m.N.<.i.e.-.e.*.I ",
"~ ).d.a.a.a.9.I D.p t } a m.<.<.-.7.J.m.U c L.N.6.a.z.a.V.[.I.g 5 (.v.*Xz.c.7.a.<.#XP , !.#XC.f.Z.p.6.m A.1Xt H / &X<.i.r.f.:.5X",
"k / r *.n n L _ X A t s s / r r r 3 r Z K A / r X.r X.*.2.H l - N 5 ) G.:.>.n >.M L U ( ` M X.*.X.X.v A k X / q = ` Z r ..r X.] ",
"E Q.,.5.A.A.w f F.0X1X) X j / H.L ,.;.w.:.M 8.=.1.>.J.].c p E ~.`.;Xg 9 G. Xq.<.p.d.7.,.6.1.-.,.N.(.A o s /.1X6Xd 6 u n.m.,.,.8X",
"] %XM.I.E q } BXuX2XgXBX) ) p F I.7.s.i.a.<.z.a.l.U.L H g wXMX`.R.NXMXR.9 ! ).V.j.Z.s.j.j.p.j.XXQ./.q k jXcXQ.uXzX:Xc D J }.N.3X",
"! $X|.L S d q (.qXnXuXBXd ( N N v.+Xr.e.s.$.s.e.XX4.v A V U nX,X9XAX&Xx ~ E B pXz.g.f.g.h.i.d.U.N [ f q _.gX=XvXtXb J d , Q.N.3X",
"R (./ - X q w _.m G.F :XD A u * 9 =X<.e.p.@.f.a.$Xi * u c R.E.c T.D.&Xv 8 8 x &Xl.g.g.j.s.r.f.5.- q d q 6XI H.U (.S x u @ i m.F.",
") ] @ H d C _.dX0XP H jX_ 7Xu Q x 0 U.k.p.%.V.[.b - Q 8 aX,XkX| h aXMXkXx S ' # ).z.h.e.<.B.tX$ _ D j [ sXaXc T.jX5X(.a ` $ U 6X",
"N _ 6 hXC (.C 0X`.P ^.jXG [ T.(.:X* N >.f.O.m.B 8 5X(.A.G.eXuX~._ eXCXI ,X` lXx Q 2.x.@.{.> F B hXA /.D 1X`.B H.kX:X].P 8X].- T.",
"f ] ! nXpX/ u N v a - _ 5 N _.yXvXK * (.V.M.%X: z lXbX&Xz ` F - u Q U > v.vXbXI., ! .X*.=XK # G.nXuXG t s F * 8 P 9 x nXnX2XB :X",
"A 5XuX*X#XiX6XF * F E 7 g zXdX&X<XvX' 6 2.S.* ` dXiX-XnXcX/.; j D : K kXMX<X*XnX^.u v >.0 p 5XvX#X4XwX) G 8 D p * :XnXlX=XfXuX:X",
"c ^.uX*XOX2X`.a 8 d D h y wX8XtXtX9Xg N L.2.f A 0XpXmXpXsX( s t N d x '.lXmX4XnXD.c n.:.I c F.uXtXpX5XD s A d N 8 F eXiX4XiX%XD.",
"H f J uX2XH., / C v u Q t S qXVXkXx 6 E.l.0.R.* 9 qXnXuXB F.A.= s A./ > ).fXyXI 9 Y V.;.[.c * v.nXqX` - D.H a , ^.a Y lXvX%Xz R.",
"D / = :Xz I U 0X0XW.6XCX_ /.D.R.,X9 Y.b.a.;.b.U , R.I.B ^.8XcX:X' CXeXS.I.L %X> v.>.s.e.{.n v.B wXf ] / zX5XQ 8XkX0X(.Y '.R.x ' ",
"A 1Xw s F 8 8XkX].B S 7X] 7X9 ~ x U [.x.k.;.l.l.4.% Q a 5XcXsX] s wXpXtXv K S 9 .Xx.y.@.s.;.*X9 J A A ] jX`.a I 9XeXR.Y ' : S.[ ",
"c $XL.d f w f _.S.%XI.8XA H F x v.<X7.x.x.;.k.;.#XB 6 D N I 8XA.5X_.&XL 9 a x  Xk.y.h.r.c.e.7.v.u s s = 6XA.<XE.].U v V 8 I ).^.",
"A -XK.v a 8 t ].tX#X<XMXN Q x V v.{.x.x.h.y.x.y.{.S.f p D G CX`.1XnXqX8 D p b +Xh.u.s.y.j.u.f.K.c d s s 5XtX<XvXpXU Q u * E.OX! ",
"a 2X6.b.H.- s hXvX=XuXjX~ h x v.b.w.y.x.k.y.s.r.s.M.2.K : 5XCX5XqXVXZXv 9 5.q.x.u.r.k.;.h.r.a.l.K.(.= d CXfX#XiXMXR.a J K q.l.Y ",
"g oX-.*.V.oXx < I uX,Xg X ! K.{.k.y.x.k..Xk.x.t.i.-.XXOXL & f `.zXT.# b .Xc.a.s.r.x.{.[.XXo.i.t.z.B.n.w * G.lX,X, 0 2.8.x.-.x.B ",
"g 4Xp.o.p.+.P.W.@ F 8 D H U.z.y.y.y.x.[.0 Y b.7.p.t.i.-.8.n.N q _ - :X=Xj.g.h.a.h.XX3 >.n +Xd.&.g.a.,.v ] ; D.8 x ,XM.;.t.y.x.L ",
"P $X<.#.a.e.C.n.!.- = 1Xm M.{.c.z.l.*XtXP q _.4XV.x.c.f.C.N.3Xj = &XL.C.j.h.p.z.XX*XU.: I.=X{.a.h.-.d.:.Q.1X& ( n.OX=.f.#.p.C.A.",
"E 1X,.=.=.,.=.:.n./ F.n.e b.l.7.q.K.m F.D j F.N U.<.<.k.d.8.P.` ~.}.N.f.s.<.=.M.5./ H H F H S.:.<.1.4.r n.n.C H.2.,.=.<.=.d.m._ ",
"s / r 3 3 3 3 2 r w C r , r r X.2 Y 8 ; j t & q I r 3 X.X.X.r Z k X.X.+.......M Z & s s 7 = P e ..3 1 1 X.b t m e 2 3 r 3 3 1 g ",
"A qX<.d.l.1.Z.9.N.2.1XN.e B.l.z.w. XL 0XQ d BXH.2Xj.Z.j.Z.Z.+XW.~.-XZ.Z.z.V.s.l.OXG.F.S ] 5X@Xl.i.Z.7.*.Z.OXU #X=.C.i.p.s.d.K.G.",
"d uX;.p.p.i.C.n.(.X t ] b N.=.a.@.a.7.oXK H !.XXc.j.f.j.C.OX'.k o 1XS.B.s.h.h.h.l.$XL , J.4XC.i.&.Z.N.n n.~.= d L K.=.;.-.p.9.(.",
"s %X=.e.s.-.OX/ & A G w c @X1.a.-.y.e.V.J.G.}.p.g.g.g.h.Z.L.S t } > G.*Xz.r.u.g.s.z.m.H.P.C.#.g.#.p.9.Z G = F.f : &X,.e.#.#.9.9X",
"8 &X+.-.B.!.q . / 3XdXq X G m.V.;.a.p.g.s.p.p.i.h.p.V.OXv w u /.zXA.@ i ).[.g.u.r.p.&.s.#.p.+.p.f.V.!.q - 3.,X3X@ & L M.d.i.d.pX",
"8 pX,..Xn.& f 1XbXm.yX0Xj f z 4.[.i.e.s.r.i.r.p.e..X3.! t `.ZX1XsXVXqXz $ m.oXa.p.g.@.a.p.$.O.l.M.9Xo t BXgX-X-X9XH.% P Z 7.<.iX",
"x gXL.U D q / G.lXU.uXsXs ) u C 3.XXe.g.e.e.r.r.z.`.N g Q F ZX1XqXZX1XP b J ( pXp.u.r.y.g.g.i.$XY ] y l 0XgX-XpX9XP g g 6 U.P.uX",
"x gXF.d s u w W.(.I.H.`.s d D u x $X+.g.p.e.r.a.{.F 8 N z z 0X] 6X5X1Xd d S c %Xa.g.@.g.&.g.1.Q.z H s = wXS.=XI.%XF a B % U S.xX",
"a eX: _ ( w BXuXwXu J wX[ 7X, ( 6 v 8.l.e.#.-.P.m : ' , wX9XeX) - zXBXBXc J n., oXC.p.g.s.V.oX, / ` N T.kXsX: A.].zXG.c ! . K yX",
"h :X, eXc W.L.fXxXA.5XzXH ~.U A.`., I.m.=.1.K.! 6 F.^.A (.].kX:XF.ZXVXJ.(.H kX0 (.P.f.g.V.>.H.S sXc `.` ZXcXU 0XdXlX(.B F.' 9 kX",
"F T.U iXfX(.c ` H 8 - } q G _.gXvXf 8 I.9.d.L.6 6 uXnXqXJ H F.= s G A.: ].ZXZXD.6 A.|.p.4XG X F.nXbX^.s ] P : > A.x I fXpX%Xz lX",
"E '.lXbXlXsX].8 : f A d q 7X$X4X$XdXu 9 n.H., z eXiX&XtX0Xd f u j s u `.kXbXbXZXP c n.Q.Z K W.nX2XpX6XG d u N c 8 Q eX2X#XpX].&X",
"N (.dX9XlXkXeXf * j j q t sX2X-X4XxXs @ A.` @ c dXbX-XfXkXE - s G - f hXxXiXpXnXD.- C J.C , !.tX=XgXhX] A 6 D a . ^.lXtX}.gX9XdX",
"F _ G.9XuXS.c F H d = [ o A _.bXgXK   (.N.1.(.X A fXfX).N B / = s H A.> F.lXnX&X& A.U.d.@XH # ).bXlXW.q P P * * ' z Y bXmX2XK qX",
"E ] w hXW.1XJ hX6X` ^.jXG ] A.`.3X& U 8.p.#.9.B 5 ].'.` H.(.eX~._ sXlXZ 0XF.kXz U m.a.u.|.b P C lXH.6XQ zX0XP (.wX1X(.3.).F.* uX",
"E /.& F.w e qXqX0Xb P BX( sX- F c v P.l.g.u.z.}.m 6 P : 5XqXnX_ u cX2XdXc w ) % I.x.@.r.r.d.=X$ ' N j T.cXqXz Y.uXuXG.x B 5 N uX",
"~ S.J.5 q f C 1XF.(.H.5Xd H j - c -XO.&.e.y.t.a.+Xv u s A A.1X( /.] eXJ s y i U.k.p.r.p.r.e.l.J.w j d s 6XW.&XH.%XL z d o K oX8X",
"F m. XN J C f 1XcX9X9XhXt A j A A.+Xi.&.p.r.p.i.V.!.C j d C dX!.0XfXQ.c j H U $Xa.h.$.g.r.r.-.oXC _ f u 1XlX<XgX8Xz S j 6 _.B.'.",
") U.N.H./ w /.BXBXQ.3XBX) | d J !.N.a.C.f.i.d.<.B.oXK A ) wXdX(.2XcXcX`.t K H.oXd.Z.i.f.z.s.a.M.L.F.f H CXlX@XlXsX6XD H S Q.N.0X",
"+ z r e Z w   X C U / t O = i m 1 r 4 2 2 1 2 4 r r n a =   q k [ A . O d v b 2 2 2 1 e 2 2 4 2 M U q   = J ! I = . * c v 2 e D ",
"h Q.1.6.9.m.Q.] = [ s j j 1X:.8.8.6.9.m.F./ !.N.1.9.<.:.H.` s t ) q ( _.q.7.7.9.<.M.n.n.!.K.7.1.8.9.H.U [ s ^.D w (.K.:.:.1.N./.",
"g OXa.-.s.p.C.n.~.t f ] z N.1.i.d.<.C.P./ A !.V.p.p.p.@.9.2.F.s q } K |.r.r.r.p.z.oXI q H.#Xl.e.s.h.9.L H.^.9 N v B.<.a.#.a.|.~.",
"t V.e.-.&.#.;.e.C.J L J.> 8.-.;.<.9.v ].G - 0XI OX#.i.-.i.+.V.C G B.g.a.y.O.$.s.4.W.n.f Q T. X;.h.s.6.3 x.b.9 5.,.-.;.-.@.O..X:X",
"y P.-.=.i.e.a.p.1.L S.m.1 8.;.=.;.8.i & ] z b q ).e.i.$.p.+.C./ ` 9.s.e.y.e.p.<.I - J i c , m.X.i.;.8.*.x.6.M q.-.@.a.;.O.-.[.Y.",
"y L.+.+.O.#.-.a.n.S I ).e 8.=.=.-.B.b ` A A W.z P.i.p.%.i.=.B.Z H P.<.d.e.e.@.a.2.! J J S K 0.X.e.-.w.2 K.K.0 v.9.a.i.i.<.e..XR.",
"7 Q.$.O.+.O.,.4.F.u a ~.b M.+.<.r.e.XXQ.J o _.OXd.i.p.%.1.m.n.) = '.M OX$.#.@.@.{.P.S.. ^.@XV.i.$.p.,.n I F.* x L OXi.r.O.-..XH.",
"h Q.O.O.+.*. X_ . / c d N $X*.=.r.r.o.7.b B m.d.#.p.a.=.U.A.z o } < G.yXC.-.+.#.e.V.1 v n l.e.@.@.a.5.U E , R.x , E.B.-.-.-.[.E.",
"l Q.O.,.m.U @ 7 ^.mX2X] = f 5.}.<.e.;.=.B.d.f.O.#.i.V.m., 8 _ 1X7X%Xq . Z M.<.@.@.y.9.9.z.+.r.-.k.E.K   V E.4X=XN 9 b m.[.=.q.D.",
"g / ,.n.F % A eXiX+X$XcXG H z Z  X7.-.O.a.O.p.@.i.oXv C c '.nX!.3XVXdX! % C H.l.@.@.=.+.p.%.t.<.5.G.: f aXmX[.#X<XS.z S K m.U.! ",
"g n.n.Z H p u R.tXtX_.zXu A q d I [.-.o.@.e.p.e.C.A.H d u a cX1X0XdX!.: d Q S #X-.e.=.-.r.r.<.K.m ] d 6 E.pX,XtX=Xv A p q U.).T."
};
