/* XPM */
static char *_bf4532557344136c362f75de0fb4099RywxOWdHRS81OtIb[] = {
/* columns rows colors chars-per-pixel */
"50 50 196 2 ",
"   c #05050F",
".  c #000614",
"X  c #050A17",
"o  c #0E0D15",
"O  c #00061A",
"+  c #020B1D",
"@  c #0A0E1D",
"#  c #03111E",
"$  c #0A111E",
"%  c #10101A",
"&  c #020E22",
"*  c #041224",
"=  c #0B1324",
"-  c #05152B",
";  c #09152A",
":  c #06182D",
">  c #0B1A2C",
",  c #131522",
"<  c #111A26",
"1  c #12172A",
"2  c #121B2D",
"3  c #031631",
"4  c #051A33",
"5  c #0C1D33",
"6  c #051E3A",
"7  c #0E1F39",
"8  c #121E32",
"9  c #181F31",
"0  c #17202F",
"q  c #0E2135",
"w  c #05203C",
"e  c #0D223B",
"r  c #132236",
"t  c #192434",
"y  c #14243B",
"u  c #19263B",
"i  c #15283E",
"p  c #1B2A3E",
"a  c #222C3C",
"s  c #292F3D",
"d  c #0D2740",
"f  c #152741",
"g  c #132943",
"h  c #1B2C43",
"j  c #162C4A",
"k  c #1B2E4A",
"l  c #1E3044",
"z  c #1D324B",
"x  c #1B3252",
"c  c #1E3853",
"v  c #1F3759",
"b  c #212F44",
"n  c #233245",
"m  c #283546",
"M  c #23344B",
"N  c #2A364B",
"B  c #25394D",
"V  c #2B3A4D",
"C  c #31394E",
"Z  c #233651",
"A  c #263A53",
"S  c #2B3C54",
"D  c #243C5A",
"F  c #2C3E5A",
"G  c #313E53",
"H  c #313F5A",
"J  c #2D4155",
"K  c #27415B",
"L  c #2D415B",
"P  c #334255",
"I  c #394353",
"U  c #33445C",
"Y  c #39465B",
"T  c #35495E",
"R  c #3A4A5D",
"E  c #2D4663",
"W  c #2E4965",
"Q  c #2F4C6C",
"!  c #324662",
"~  c #3B4761",
"^  c #344A64",
"/  c #3B4C64",
"(  c #354D6A",
")  c #3B4E6A",
"_  c #355065",
"`  c #3C5166",
"'  c #36516E",
"]  c #3C556D",
"[  c #3C526C",
"{  c #3E586F",
"}  c #374F72",
"|  c #2F5071",
" . c #365271",
".. c #3E5370",
"X. c #3D5473",
"o. c #3B5674",
"O. c #3C5472",
"+. c #3E5975",
"@. c #3B5579",
"#. c #3E5C7B",
"$. c #414C5D",
"%. c #404D60",
"&. c #404E65",
"*. c #414F6A",
"=. c #415367",
"-. c #435265",
";. c #495566",
":. c #42526A",
">. c #43556A",
",. c #445569",
"<. c #43546C",
"1. c #4A566D",
"2. c #44596E",
"3. c #4A596E",
"4. c #405776",
"5. c #425672",
"6. c #425972",
"7. c #445E77",
"8. c #445A74",
"9. c #495B72",
"0. c #4A5F76",
"q. c #4A5C74",
"w. c #455F78",
"e. c #445C7A",
"r. c #495E7A",
"t. c #4A5E7A",
"y. c #525E74",
"u. c #456075",
"i. c #4C6076",
"p. c #47617C",
"a. c #4F637C",
"s. c #4C627C",
"d. c #526176",
"f. c #526478",
"g. c #55677F",
"h. c #53647C",
"j. c #59667A",
"k. c #55687D",
"l. c #5A6A7E",
"z. c #435E81",
"x. c #4B5F80",
"c. c #466385",
"v. c #4B6482",
"b. c #4E6885",
"n. c #476589",
"m. c #4A668B",
"M. c #47688B",
"N. c #4D6A8B",
"B. c #526781",
"V. c #516682",
"C. c #556981",
"Z. c #546983",
"A. c #5B6D84",
"S. c #536C8B",
"D. c #586D88",
"F. c #596E8A",
"G. c #597286",
"H. c #56718C",
"J. c #5F738B",
"K. c #5C728C",
"L. c #4D6E91",
"P. c #547393",
"I. c #5C7492",
"U. c #637387",
"Y. c #61738B",
"T. c #62748C",
"R. c #697689",
"E. c #69788F",
"W. c #607594",
"Q. c #657B95",
"!. c #6B7C92",
"~. c #637D98",
"^. c #637C9A",
"/. c #6B7F98",
"(. c #6E8194",
"). c #6C819C",
"_. c #6C839C",
"`. c #718097",
"'. c #72859D",
"]. c #6F87A1",
"[. c #6E89A6",
"{. c #7186A1",
"}. c #738AA3",
"|. c #7A8EA6",
" X c #788FAE",
".X c #7691AC",
"XX c #7F93AB",
"oX c #6E8FB0",
"OX c #7A95B3",
"+X c #8394A6",
"@X c #8696AD",
"#X c #869CB4",
"$X c #8499B2",
"%X c #8D9CB1",
"&X c #819CB9",
"*X c #93A4BC",
/* pixels */
") ......( ( ^ ^ / 9.Y.4 ( V.( ( ) U 7 Z ).( o.' [ P 1 = O * s.~.u.u...K _ [ R ` / Y Y ; + =./ ^ T ' ",
"r.r.4.4.( ( ` [ / [ k.y h.s.! ( ! U 7 S D.( Q ( ^ :.a 1 + $.#X] ' ] ^ _ ` _ =.J l n n - & >.>.P ] u.",
"( ^ ! ( [ +.[ ^ / P / y B.( ! F ~ ! 9 Z k.] ^ ' [ ~ a = = Y J.^ ^ ^ 6.Z l l h n b b u * * =.f.` [ ( ",
"( ( ( ( W ^ T ^ U S S y 0.U U k S N u y i._ Q E ( Y t + + S Z.z A L / S J L J J I Y a & & R A./ T ( ",
"! ^ ( ( L A z l p p q r [ ~ ~ F h f r ; J T ] ^ Z b 2 = = r L J A M H S V S R P G C 1 & - G l.9.>.) ",
"k g g k ! ) [ ` ` Y y y :.U F ) C y * ; > 4 w w 3 3 > $ $ > e z M 7 7 y h y y t 8 2 ; ; & 3 i y u h ",
"v.t.B.s.a.8.8.2.9.Y a u / U Z U ) U ; * M _ 6.s.~.8.Y ;.-./ [ T A F n L R r - ; Y :.y.q./ / ) U : g.",
"t.t.t.8.8.[ :./ P u p p :.U F M U Y./ r i.(.}.[.^.F.l.i.3.2.7._.A.F ^ [ h.:.e r U.y.j.y.q.5.V.|.r R.",
"t.V.V.8.0.5.5.Y n m N b :.~ Z z A 8.9.: l.G.v.c.e.e.8.5.1./ ..p.X.F *.( ) C.P e 1.0.0.8.s.b.Z.}.u $.",
"V.A.V.5.t.h.=./ >.&.S p U ~ L M [ ] G.q i.G.+.p.c.e.r.*.~ ) ^  .) ~ ../ :.g.M 5 ~ :.~ ~ a.Z.H.].y G ",
"A.y.q.q.5.0.2.>.=.>.G r ! U F 4...e.a.i 2.6.+.' W Q D F Z A ( E ^ ( ( ~ [ [ r 5 / *.^ L E e.v.E > a ",
"Q.V.q.t.:.^ <.2./ ~ Y r h F ! ( ( E A 5 9.9.o.o.e.} ( ! ) q.e.e.F ( 5.<.8.P 5 5 &.9.:.! ^ ] +.E m 0 ",
"h H / D k f k h V m f : M F F D v j g 5 =.:.E ^ D v F ! ~ / ^ ) ] ^ T [ ] l 5 5 3.y.0.*./ ( e.] n # ",
"k 3 y 4 - 4 - e f V y S ].F.S.I.S.I.h.y 8 S ( e.} } ! ~ H h f 7 q y y > > * : * p y k n ^ 8.Z...h > ",
"*XE.y.U F +X{.J.k.l.F n 8.) 4.e.o.[ 7.p Y !.x.} } E F F H &.Z f : T i.k.l.s 0 r C p 8 f t.t...8.V d.",
"E.A.t.t.F ~.X.[ ] [ S y 5...E #.X.8.) h S ~ F E v v H H H &.*.f q l.i.J ,.,.J > %.F n u ) <.[ 8.p (.",
"d.3.2.p.E n.z.@.+.+.J : J <.o.o.5.S i z ] L ^ ..K c A F F L ! F y ~ l.:.8.R R : k.P M p 5.[ :.i.q Y ",
"C N =.i.E e.z.@.o.6.P : p [ +.+.L Z ).].^ ( K p.L Z S A F A E F 8 G l./ &./ T r l.R q R >.:.[ 5.> N ",
"1 9 n =.A e.} 4.[ >.s # ; J _ 8.A Z Q.K ^ W ( 8.L A A S F ! ! k ; 2 3.-.I $.R u R p p I G R U u = 1 ",
"= O * * z [ 5.5.*.;.0 a m B z x 5 k 5.^ K E ' u.2.z c L F F F k * , s t p t > = < X # < u b n h t 1 ",
"P &.f./ L 7.....:.<.; =.(.(.I.I.U 5 ) A T W ] ' M z S F F F L Z 8 r G R S l N S R ,.- R E.XX}.T.l.9.",
"0.A.A.s.d e.X...) q.> R G.u.#.@.U 5 U S T E A z ^ [ ~ S ! H F U ; A.'.Y.Z.Z.h.t.k.k.4 !./.a.e.e.a.t.",
"e.p.T.' g ( 4.X./ 8.e T u.Q |  .U * l / K A M A z h f n ~ H U 9.5 q.Y.Q.h.6.e.a.{ L : J.B.e.v.e.e.e.",
"v.a.D.J M L ^ 5.5.) e J u.Q Q  .H + 5 y n L A Z Z B N h n S ~ / 5 >.k.D.B.p.:.5.i.2.6 D.Z.p.s.e.t.v.",
"q.g.k.l J 3.P >.*.f 2 N >._ ^ <.V + r p i ~ U U B y A I N G u & * ;.9.9.t.2.h.g.E.3.5 :.g.d.A.h.8.*.",
"f y r > n I S ~ ~ u p p P L ^ z t $ + 8 y A B k 7 h n N C N = ; ; n Y P S ~ U H G G n f S U Z z k f ",
"*.*.~ ; n Y U H ~ Z J R B M l y + n V U U L F F U F r > ; > * y n z z l z g 7 y h y y n y r :.a.p.8.",
"x.V.C.L / *XA.) [ 7.G.2.] T u.2.; ;.3.>.<.5...[ 5.y.2.~ y ; p H <.0.7.b.I.e...4.8.<.q.^ U n #XC.r.e.",
"c.p.K.E k ].c.O. .Q ( o._ ' 8.C.* R i.8.[ 4.e.p.e.t.5.5.n n ) h.Z.N.N.v.N.I.S.S.S.D.V.Z.h.E K.8.4.r.",
"S.p.p.e z [ Q ( @.Q o.^ 2.i.i.B & p ^ t.p.v.#.e.S.r.t.V.k A a.B.Z.S.N.N.L.L.N.x.v.v.V.t.V.g A x Z ( ",
"t.s.S 5 n ~ L } +.] T T P I N r * e S 8.@.#.#.n.N.O.e.v.j ! b.t.s.....v.x.4.r.r.e.y.q.&.f O y / Y.W.",
"3 - - - n Y 5.t.a.k.` r > : > q : 3 e W e.b.P.S.X.v.S.e.- 4 F s.7.M 8.t.E L x k k h b 7 y 7 : 7 ; ; ",
"e.a.s.P 5 N n m a a > l 3.h.Z.i._ K K l 4 - q 5 r 5 : - 4 f 5 > 5 + 2 t ; 4 3 e k F t./.[.OX].5.8.0.",
"e.o.] J.h & 8 & 1 9 * :._.K.u.b.Z.b.D.k.A r s j.3.=.U n b n ~ 3.r t # < A.Y.I.Z.S.*.S.v.P.oXS.c [ ] ",
"m.c.e. Xk M h.@X~ A.) z ' o.@.o. .+.G.) J V $.;.%.=.n ! f 8.9.9.n 0 $ a %Xq.} 4...r.x.z.z.n.OX#.m.N.",
"n.z.c.I.D / $XW.Z.t.5.j o. .@.o...o.K.z M J R ;.>.U A M y / ) 3.d.m # 0 /.*.4.4.4.q.x.z.n.M. Xv.N.L.",
"N.v.4.S.x E W.V.I.r.E x ( p.@.o.o.H.Q.B N G 8 &.&./ ! z h ] 5.( >.1.& 1 y.( @.4.q.8.S.z.z.n.N.S.N.L.",
"V.b.x.x x 4.x.x.( e.E c ( ' e.#.e.I.{.Z f Y r : f B z e 5.8.4.[ / =.; 8 Z / x.4.q.t.4.v.M.n.S.S.b.n.",
"A.A.5.H f *.t.q.F h.T f ^ >.g.8.e.I.F.h S N : r h y Z Z.e.p.8.^ ) q.u ; h j j I.q.x.B.b.N.c.e.p.B.B.",
"b M G u & 5.5.1.q.V.Z q 5 y y h g g e f u 5 * p / :.B.[ e.u.o.' ) 1.8 & 7 e f x F *.s.p.S.S.D.s.^ P ",
"# * & * : l M l h A h y y q V k.p.e.8.d.A.q.8 S D.[ s.e.p.e.( ' [ 9.t = l J A z 7 ; * 4 6 w 4 6 & ; ",
"n * U.!.2.T.L G.OX@X|._.k.2.>.Z.p.p.t.s.A.f.h G / ~ 0.b.v.#.( ( ) 8.r r d._.{ 6./ 8 A k.S.H.Z.0.h Y ",
"l.i !.G.>.p.' +..XZ.b.p.7.s.{ ] X.+.8.8.q.9.b G *.[ ..b.e.[ ..) ! ` h 5 9.D.6.i.1.t h._.K.p.0.9.B ~ ",
"^ q J _ ^ 2.W w K.o.u.e._ +.o.] o.o.X.<./ G 7 b ~ / S 5.5.( ....^ [ n > =.T 2.[ 2.r >.9.v.v.q.9.U B ",
">.i { ` ^ 7.K i 7.o.v.v. .o.+.e.#.o.] [ U S y u U 5.F ) 5.) [ 5.L 0.p r =.T ( ^ R r q.:.p.r.e.9.) S ",
"` i f.{ <.<.^ f 6.....X.X.#.c.e.e.#.7.6.9.*.n 5 n d.5.:.:.[ 5.5.D ( n y / ^ [ ~ / 2 Z Z ( e.q.5.5.] ",
"J l T d.>.3.1.y :.:.<.8.e.r.p.c.z.v.b.A.A.9.B ; n *.q.*.5.) ) ^ Q ! A 8 [ <.5.( Y ; f Z ( ) *.) <.<.",
"p ; l Y R P J r F S H F H ^ ^ ^ W L Z F G b 8 : b p b 8 u u u y F q.N y U / Z ! n ; 8 k F Z Z F F f ",
"r 0 r M T S B h i y > > > i q e e q * * + + # + ; ; $ @ @ X X = ; ; + 9 ; > 4 7 n ; + & = O 8 b V h ",
"I ` 2.>.7.6.p.i.h.U.3.; V +XR.k.k.R < < s I I P t 0 , % o   . $ 1 9 9 $.;.1.5.t.q.;.a X = I d.1.Y V "
};
