/* XPM */
static char *bdf141191e8642f6cf15782be1d9f3c8yU6GAufIEoa4qKSK[] = {
/* columns rows colors chars-per-pixel */
"50 50 115 2 ",
"   c #372D24",
".  c #392E25",
"X  c #3E332B",
"o  c #41362D",
"O  c #42382F",
"+  c #453B32",
"@  c #493E36",
"#  c #4A4037",
"$  c #4D433A",
"%  c #51463D",
"&  c #52483F",
"*  c #554B42",
"=  c #594F46",
"-  c #5A5047",
";  c #5D534A",
":  c #61564D",
">  c #62584F",
",  c #655B52",
"<  c #695E55",
"1  c #6A6057",
"2  c #6D635A",
"3  c #70665D",
"4  c #72685F",
"5  c #756B62",
"6  c #796E65",
"7  c #7A7067",
"8  c #7D736A",
"9  c #81766D",
"0  c #82786F",
"q  c #857B72",
"w  c #897F76",
"e  c #8A8077",
"r  c #8D837A",
"t  c #91867E",
"y  c #92887F",
"u  c #958B82",
"i  c #998F86",
"p  c #9A9087",
"a  c #9D938A",
"s  c #A1968D",
"d  c #A1988F",
"f  c #A2988F",
"g  c #A3998F",
"h  c #A29990",
"j  c #A39990",
"k  c #A59890",
"l  c #A69991",
"z  c #A49A90",
"x  c #A49A91",
"c  c #A59B91",
"v  c #A59B92",
"b  c #A79A92",
"n  c #A59C93",
"m  c #A69C93",
"M  c #A79D94",
"N  c #A59B92",
"B  c #A89B93",
"V  c #A99C94",
"C  c #AA9D95",
"Z  c #A89E94",
"A  c #A89E95",
"S  c #A99F95",
"D  c #A99F96",
"F  c #AB9E96",
"G  c #AC9F97",
"H  c #A99F95",
"J  c #A9A097",
"K  c #AAA097",
"L  c #ABA197",
"P  c #AAA097",
"I  c #ABA198",
"U  c #ADA098",
"Y  c #ACA298",
"T  c #ACA299",
"R  c #ADA399",
"E  c #ADA39A",
"W  c #AFA29A",
"Q  c #AEA49B",
"!  c #AEA59C",
"~  c #AFA59C",
"^  c #AFA69D",
"/  c #ADA39A",
"(  c #B0A39B",
")  c #B1A49C",
"_  c #B2A59D",
"`  c #B0A69C",
"'  c #B0A69D",
"]  c #B0A79E",
"[  c #B1A79E",
"{  c #B3A69E",
"}  c #B4A79F",
"|  c #B1A79D",
" . c #B2A89F",
".. c #B3A99F",
"X. c #B2A89E",
"o. c #B3A9A0",
"O. c #B5A8A0",
"+. c #B6A9A1",
"@. c #B4AAA1",
"#. c #B5ABA2",
"$. c #B6ACA3",
"%. c #B4AAA0",
"&. c #B9ACA4",
"*. c #B8AEA5",
"=. c #B9AFA5",
"-. c #B9AFA6",
";. c #BCAFA7",
":. c #BCB2A9",
">. c #BCB3AA",
",. c #BDB3AA",
"<. c #BFB5AC",
"1. c #C0B6AD",
"2. c #C3B9B0",
"3. c #C7BDB3",
"4. c #D2C8BE",
/* pixels */
"u a u 3 r s a a p a a i i p a a a y t 1 >.J Z n Z Z n n s Z a a , r 2.n a J f n c c n J f Z n M a a ",
"i f p 2 u p a a a a i a u u u a u a r - r a a a a a x f x Z a a ; >.a I Q f a a p a a a a J f a a a ",
"u u q , p a a u a u a i i u e 8 6 3 ; X + , 7 8 e q r e u i r u * *.J J a p f a p s f f n a p a p a ",
"u q , % 8 w r w 8 1 1 - + # 3 e u r u u q w r w 8 4 3 , < , , $ * a X.a n f u a a s p i a u i a u a ",
": = # + = > 2 2 1 3 3 1 # = i ] J ] X.R o.] X.^ ] ^ I I I s i ; X 8 e a e 6 q w 8 e q q 0 8 8 6 4 5 ",
"r u a c s x c n u a p u 8 ; a J R R ] J #.I ^ J Z I x I Z Z a < , # , , * ; ; ; ; ; - ; O + , 6 r y ",
"a a M f a a i i a i p i u = 5 a a a a n a p n a a d a x a i 8 ; 5 r r r i y i e a p u p , < r x a s ",
"a i J a a a a f a n i a r u ; r n J a p u t u a i r 9 2 ; , $ # w f i f i n i x i a u u ; 8 x a a p ",
"p a a a a a i x i a a t i u 1 * ; < 5 2 < 5 5 e u q r r a p r * e a a i a a p a p u a e , 8 p i a a ",
"i a i u p a a a i r u e 7 1 ; ; X u o.O.o.*.@.V M n M I Z s M 5 0 a a u i r a i p a r i 6 8 a a a a ",
"u a i i a i r e q 5 1 5 q u a a ; a E d M c Z n x ^ E Z a x D 7 X % ; > , % 8 e u t u t 1 ; u a p p ",
"a a a i e 5 2 6 q r a i a a a a 2 d Z D n n n n I c M M s n a r ; w a r 8 $ ; , 1 5 1 # X 5 n u f a ",
"7 2 , 1 8 q y a i i i i a a i i 5 ] a Z d Z c d a a x a p a i a 1 Q X.^ o.M Q X.n a t 8 = 5 ] o.n n ",
"4 8 e u u a a a a i i i i a u 5 * ^ d M s a d a a n I M d p r 8 * n M X.$.J X.J o.] R ] u ; q 1 > , ",
"r i a a p a a u a a i i i a r * X u -.*.n a u q q ; , 2 < * - * + q Q Q x x #.] n ] r J u # * 5 r r ",
"a a a a a a a p u u u u u q 3 $ ; X - - ; ; , 5 < + q D I a a a q , p p a a i a n a u u 6 * q t y u ",
": 3 9 = * , ; , : ; ; ; ; ; : 9 u k n u p ] O.Z ! q 3 I a a i a u ; 5 i a x a e q w q 1 % + # % > > ",
"w 9 9 w : . 9 F U { } ( +.;.} U G G #.) ) @.E O.] a 2 u t t r u q # + 1 , , , # + * 8 t i a a 6 r r ",
"p k p p w 2 F a +.U ( { } W C ) +.G @.D n E s C ! n * < 5 , < 1 8 r r a a a r r , 3 a a a p a u p a ",
"w i k k w 9 W B ) ) +.} { U b U b s D n k V s k M p < + , 8 u a a a u a a a a a 8 ; i a a a a a a a ",
"p i a u 9 9 k W &.U U G k k i w s p i s s i p a a a 7 - a d a u i a a a a i x a q , a i a a u p p p ",
"i i i i 9 = 9 l k k b B k k i k a s i s s s b s u 7 = $ a p a p u f a r a p i r q * a n u i a a p p ",
"w q 3 , = o @ 9 i a a w 9 w a w a k p w w w q 5 > X 1 - 1 a p p x r u i u e r w 1 X $ = 3 8 e t t t ",
"= * 0 i +.b q 9 = @ @ % % * 9 9 2 : * @ + @ @ @ # * * = * 3 3 1 ; ; * $ $ ; % ; , ; ; = > ; , ; < 1 ",
"9 < _ s U { b G 1.k q 9 , < 9 % X , u r a u r u a i a h n n a n 8 u 8 6 # u i x X.E ] Q $.X.f t y s ",
"< : 1.k C { D V G C a V k k k w + o.d i a u a d d a a i h d d a a i a a , u ^ I E Q ` @.J a X.P ( ( ",
"y @ ( F O.D k n B l k C C b k 9 X c d a a d u d a a a u a e a u i a a a 2 r o.] Q @.X.a Q X.R R S C ",
"w : U a n D a d k p k a i k p 9 X V p a h d u a u i i u p r d a a x u a 1 a X.^ X.a n f g n p a s p ",
"q $ a O.i p a s k k a p k a i w . i k s a u h u u u p p u u a a y r i r * q M I Z a a a p y g p y y ",
"+ , * 9 i t ] ] _ _ w 2 9 2 < % @ ; u p a i a a i w u d u e e i x t w < X + = * < q w q t e 0 4 & & ",
", 5 ; @ * * % = @ @ : ; 3 w G G a 5 3 6 J n r w 5 : ; 2 : X X * * ; < 6 t t 8 , = # + + ; ; > , - : ",
"i a a 9 r w q 5 3 @ p 1.( +.{ ( ( V p 3 > 2 5 7 5 e d p 8 = w p q x M o.M ^ E r Z e + * p a s u y a ",
"u a a a w a u u i * u o./ M M I f X.X.a ; a a a a i a u > i X.] i ] ) } ( C } ] E , $ w f i a a a a ",
"i a p i i M a a u , r R n d a a n f a q 3 u y 0 r u 8 ; p Q X.^ B B U ) ( { B G w + 5 u a a p a p p ",
"u u p a x u i a a 5 7 M i 6 5 w 8 < , $ ; ; 1 4 5 , + * Q X.$.n k p u s s i i y : ; u t u u i u y u ",
"u i i u a u a u a 5 + * - 1 7 6 5 e y u i a a a a u - # e J n a i C p u u s s 4 o 8 n u u u a u p p ",
"u i i i i u a i u 6 , a i i a a p p u n a i y p x t 8 + r ] p n W l k t w 0 , o X - 8 8 4 8 e e t t ",
"* ; ; 5 8 5 q u u 8 2 a a a a i i a p u u a a u y u u ; 8 q 8 , < : % @ @ * > 2 ; * X X X * - ; - - ",
"a r , + , ; 4 1 ; * - 6 5 4 5 5 4 5 8 8 8 5 5 7 2 6 , % X + - , > w t i s s V i a p 1 ; r d d d p p ",
"i a 8 , a i M p e 8 8 8 2 1 ; * , 5 q 0 7 7 1 1 6 1 > # + u J a s s k p s s i s u a 8 = u a u a a a ",
"t i i 1 a p p i a a i a p d r # 8 a a a a a i a a p i 8 X q J a a i a a i a a p d u 6 - p u u a u p ",
"u u u 1 i a i a a p u a p p u ; a x a p a f f a p u p 8 O 5 f a s a p p x n a a u u ; X ; 7 8 e y p ",
"; * * * # ; ; 7 8 u u u u p w * 2 r a a a i p p a a u r : ; J a i i a i i i i i r 1 1 p i w 1 ; - & ",
"u a a e p t 1 * , 6 5 5 2 1 ;   0 a a u a a u p s u a a 8 + q J a a i a x c a u 8 * u o.M ] o.J a 3 ",
"u R R J u d t 5 a a u u a u 1 X 8 a p a p a p a i u a i y @ > 0 8 p d i 7 2 5 ; @ o 9 9 q q w i u 1 ",
"* - 1 2 e 8 1 X 5 q 8 5 3 3 - + > 5 5 6 8 8 9 7 8 e q 8 8 + @ # # ; - 3 7 , > : > : - @ = - - : > ; ",
"q r r < X 1 q e 8 q r u u u r r w 2 #   5 0 r 8 4 * ; * * + * 2 3 X 2 >.:.^ 1.1.) ] b V C b U b d g ",
"a n n 8 8 a u a a a a a p a a a a a q : X.c J n J i f I a i i 2 X * u ] ^ Z s E ) ) W B C b C b g c ",
"a J J q t a a a a d a u u a a a a a e , R I n M M n I M f x x n 1 3 4.o.^ n J a g a J Y R P R g ..g ",
"a a p 5 t a a i a a a p a a i u a a r , ^ J M J M M Q I x x x n 1 2 4.J h p J J J d ` ....c g y L s "
};
