/* XPM */
static char *_8ef6246dc9147d2b0bd1ed270c81ecbAW2VGtjS10FKseOm[] = {
/* columns rows colors chars-per-pixel */
"50 50 203 2 ",
"   c #00041F",
".  c #000624",
"X  c #000B25",
"o  c #000628",
"O  c #010C2B",
"+  c #011327",
"@  c #02122C",
"#  c #07172F",
"$  c #000D32",
"%  c #031434",
"&  c #0A1534",
"*  c #021A36",
"=  c #0A1A34",
"-  c #031539",
";  c #081739",
":  c #041B3B",
">  c #0A1C3C",
",  c #111B37",
"<  c #121D3A",
"1  c #181E3A",
"2  c #032035",
"3  c #04223D",
"4  c #0B223D",
"5  c #052B3D",
"6  c #0D293F",
"7  c #112033",
"8  c #13233E",
"9  c #18223E",
"0  c #031D42",
"q  c #0C1D42",
"w  c #111D42",
"e  c #042443",
"r  c #0B2443",
"t  c #042A45",
"y  c #0C2A45",
"u  c #052649",
"i  c #0B264A",
"p  c #052B4B",
"a  c #0B2C4B",
"s  c #122344",
"d  c #1B2541",
"f  c #132B44",
"g  c #1B2A45",
"h  c #13254A",
"j  c #19274A",
"k  c #132C4B",
"l  c #1B2D4B",
"z  c #033047",
"x  c #0C3345",
"c  c #05324C",
"v  c #0C324D",
"b  c #0D394D",
"n  c #143146",
"m  c #1A3347",
"M  c #14334D",
"N  c #1A334B",
"B  c #133B4F",
"V  c #1C3A4D",
"C  c #0D2E51",
"Z  c #132E51",
"A  c #1A2E52",
"S  c #053353",
"D  c #0C3453",
"F  c #063851",
"G  c #0D3A55",
"H  c #0B3658",
"J  c #073859",
"K  c #0D3C5A",
"L  c #133453",
"P  c #1B3453",
"I  c #133A54",
"U  c #1B3B55",
"Y  c #14365A",
"T  c #1B365A",
"R  c #143C5A",
"E  c #1B3D5A",
"W  c #212A45",
"Q  c #212749",
"!  c #212C49",
"~  c #23324D",
"^  c #28324D",
"/  c #21394E",
"(  c #232E51",
")  c #243653",
"_  c #2B3653",
"`  c #233B54",
"'  c #2B3B54",
"]  c #233C5B",
"[  c #2B3D5B",
"{  c #23375A",
"}  c #313E5D",
"|  c #393F5F",
" . c #323855",
".. c #0D3F60",
"X. c #1C3E61",
"o. c #233E61",
"O. c #2F3D60",
"+. c #0E405E",
"@. c #154453",
"#. c #1B4356",
"$. c #164857",
"%. c #14425C",
"&. c #1B435D",
"*. c #1C4A5E",
"=. c #254257",
"-. c #294356",
";. c #24435D",
":. c #2B445B",
">. c #25485E",
",. c #2E495F",
"<. c #32445D",
"1. c #39435E",
"2. c #314A5E",
"3. c #0E4462",
"4. c #144463",
"5. c #1C4462",
"6. c #154964",
"7. c #1C4A65",
"8. c #1F4569",
"9. c #154C69",
"0. c #1C4C6A",
"q. c #1E526B",
"w. c #1D5372",
"e. c #234462",
"r. c #2C4562",
"t. c #234B64",
"y. c #2B4B64",
"u. c #224668",
"i. c #224E6B",
"p. c #2A4E6B",
"a. c #2C446A",
"s. c #334561",
"d. c #334C64",
"f. c #3C4E66",
"g. c #334C69",
"h. c #3A4E69",
"j. c #215264",
"k. c #2A5067",
"l. c #26516D",
"z. c #20556D",
"x. c #25556D",
"c. c #24536C",
"v. c #2C536C",
"b. c #28586F",
"n. c #335066",
"m. c #3D5066",
"M. c #35546C",
"N. c #3B536B",
"B. c #3E596E",
"V. c #2E4F70",
"C. c #354D73",
"Z. c #235570",
"A. c #235573",
"S. c #2B5571",
"D. c #235A73",
"F. c #2C5C75",
"G. c #2C5C7A",
"H. c #265B7B",
"J. c #345572",
"K. c #3D5773",
"L. c #355B73",
"P. c #3B5B74",
"I. c #375E7F",
"U. c #3C5C7A",
"Y. c #26677D",
"T. c #2D617B",
"R. c #3C6277",
"E. c #30647C",
"W. c #33647D",
"Q. c #39637B",
"!. c #31687D",
"~. c #43536C",
"^. c #44596E",
"/. c #435B73",
"(. c #495C72",
"). c #445F7A",
"_. c #495D78",
"`. c #505C74",
"'. c #426176",
"]. c #43637A",
"[. c #4A647B",
"{. c #56657C",
"}. c #356682",
"|. c #3D6C83",
" X c #3C6E8F",
".X c #3A6683",
"XX c #446A82",
"oX c #4A6E84",
"OX c #4A6485",
"+X c #536A84",
"@X c #506988",
"#X c #4C768F",
"$X c #48788F",
"%X c #54748C",
"&X c #5A748C",
"*X c #507190",
"=X c #5A7E94",
"-X c #606E8B",
";X c #636D86",
":X c #6B778F",
">X c #798EA3",
",X c #7C96B1",
"<X c #8AA2BE",
/* pixels */
"M ] k s & w ( j A e.I.5.J ..4.w.9.w.3.4.0.q.7.&.r O = * L @.I *.7.R D D E Y T a Y Y E G.T.w.T.$X!.!.",
"U M.> @ . o o o - e.Z.8.G.G. XH.4.w.w.w.4.9.Z.8.K.> % g.&.t.I R i.8.E E u.8.u.5.Z T L 5.D.q.b.T.*.x.",
";.P.P r % O O o * 5.7.7.w.A.A.w.3.9...9.9.3.%.7.e.M * M t.j.0.4.R 0.5.L Y H &.8.Y R L 7.W.F.x.x.q.q.",
"v e.&.y i y r * D L i.6.Z.0...9.3.3.....6.D.A.*.r.y o v t.%.i.%.%.4.R I R S D 7.R I D %.D.q.*.j.T.@.",
"D v.&.y e k a E c G c.4.i.6.%.0.J 9.0.i.0.Z.x.7.U P O t *.E &.%.R 4.R H J u p K D S c G A.F.%.G G E ",
"x L.p.U U ] E v v &.*.*.*.%.I t.E i.v.l.i.i.t.v.] 6 * 6 U y ;.I &.*.T D D c v I I L I I &.b.*.c U 5 ",
"M f f V ,.m / f m n V x U m m m k M U =.E >.U x n m :.' N m g.M.y.m 6 f m n M n f m ` ` N N n # + X ",
"n.n.n.,.-.2.n.2.=.V m m n / n.2.<.d.:.] U U U n.,.n.N.d.B.[./.].M.^./.d.' :.n.=.n.n.2.m.m.^./.d + 7 ",
"R.L.P.XXXXR.].oX#XR.].oX].B.L.d.d.n.y.P.=.p.v.].M.>.].M.=.n.>.y.U t.y.:.P g.M.t.L.P.K.d.r.d.).y.` :.",
"t.b.oX#XQ.k.Q.Q.XX|.L.k.k.&.oXM.U 6 =.;.v &.&.e.j.t.;.;.;.&.E &.E R E y.E ;.;.*.&.&.e.] * M P e.p.L.",
"v.b.E.F.b.x.F.W.L.b.b.@.c.&.t.t.=.M I T v v D 5.v.i.5.5.u.E G R R I R E L I L t z v M y O 4 L @.5.F.",
"b.c.F.F.T.F.G.W.F.z.%.c 7.*.$.c.E 6 M t.L u Y Y S.R &.5.L X.u.S G D c L a U I c t 5 t e % % v p F 4.",
"}.Z.7.q.6.6.}.T.H.A.A.4.0.6.6.R U f M &.T L a C S R S u a C H H S p c p p Y L c p t i e - : S R J K ",
".Xi.i.6.4.7.i.7.0.R Z.G 4.5.%.I y l 3 y y k Z k i u C c i i p C u p p C i k k t c c a * > % D S a p ",
"y.T E a v L t E E v M a v L b I M 2.y 2 y : e r v e t y k L e p y 5 6 s s > > r y n d & Q @ k 3 @ + ",
"/.N.y.M.M.] U U :.P f P f ] v.n.^.n.-.y y y f e * 3 3 e : * v E M r * O O O # @ X o & d  .l 8 m l W ",
"[./.M.P.'.g.:.N.&X+Xf.1.<.m.].>XoXM.M.n.>.#.V f + . @ g s y ' P.g.P 8 * . & 1 & @ @ < _ 1.1.:.d.1.[ ",
">.p.P.L.=.P ] r.U m l = 9 6 $.R.b.t.M.v.P.b.>.P.% 9 l ! ' k 3 :.P N N k <.! d ( ) ( l s.s.f f M U f ",
"3 v U.*Xt.e C I y y ] j l y 7.6.4...4.4.T.T.R e.] A O.l y a e p c H H u.M.;.A k : C 5.V.E S *.&.I t ",
"p e p Z i i X.R I I Z :.l T q.6.4.3.J F 9.6.+.H e e a.Y e S p H H J K F E u.J.: a S L p p e p 5.v.y.",
"H D L C 0 0 u e I L k j { &.T.Y.9.K K K K K 4.&.u - a a u p p S D K +.0.t t a y c C R u p S v j.a k ",
"G p i Z h - 0 e D M P % N v w.D.6.K 4.%.%.4.G I i * - i e S L S S S 6.7.D t - r p 3 L X.L u L t.r % ",
"T P h w r % - 5 y f 8 = 4 M $.6.K K *.I R %.G I a f @ 3 e I L c H G i.S.v 3 & k k a a e y e a v M r ",
"* f q > f r * 2 4 6 = 8 <.n B B v v t a I v B M 6 k > k 3 y a P E e.e.E y ; > ; % * r r f q r r > ; ",
"9 g ~ g f V :.n m m f._ >X[.N.n.B.^.N.` -.V m m ' ~.:X~.' / 9 ' f > * 6 + # W , d ! d N 8 d 7 4 ` B.",
"-Xl 4 : @ ;.:.y.2.m.(.(.-.' V ` V =.<.:.-.:.d.(.{.;X`.<.2.^.(.-.<.] ' ~ ~. .| s.<./ l ' ' <.~.m.[.].",
"/.K.].%X].y.V h.<.! ) V -.y.=.y.=.M =.;.d.=.P.&X[ [ [ k f k N P h r 4 a ) f j [ :.r.r.T U ] &.k.p.R.",
"T M.P.J.J.U r.l < , O f @.B &.L t t y y a t v e k f P k e e f k i r a r > k f r y t v I L U v 7.b j.",
"E R t.e.L.y P ) & . % M 5 %.%.6.%.M e a M a v a T k E a e t e : 0 : r r % j f k U &.v =.I I I $.@.@.",
"I a k M T M e.g.) s @ M %.%.G c %.R I t c v c t e.u a u a t 0 0 - q j k O j f l L e.v I M R &.*.j.$.",
"3 N 4 > v M &.#.'.d.* M t t R c F K F R H R c F p p C R R D Y i j % : % % * j P M 5 v I v I b z $.B ",
"s 4 4 4 * 3 I U ].'.] a 5 M E v c R %.p c R D e p i L D L v a a > ; ; ; O & o % 4 t M t x x B B B U ",
"m m 8 6 * 6 M =.'.[.y 6 l f f * y a a r 6 % * = 4 : : 6 r ; > 4 = X = 9 , Q 1 Q @ % 6 * V n n n f 6 ",
"N.s.f f m > % m &X%X:.=.N [ s.d.:.k k N N ~ ^ W d ^ ) ~  ._ N d ^ l , , Q |  ._ g = + . + + * + @ = ",
"+X_.[ ~ N P f ` <X,Xd.r.[ ;.) P ` N l g # 1 W 1 W d g d ! ^  .^ ~ ` ) s.{ O.O.O.N l g g & = 4 = l ` ",
"% * > s ; - > e OX@Xr * 0 : > > : 6 l h.^ @ X 1 , W ! & O o . $ = : % s h Z - 0 4 N P ) = % < & & 4 ",
": 4 ; * % > * r - r u y a r : 0 : e r P A l = w s - 0 q - $ - - & O q w 0 w 0 0 3 y r 3 > > h ; > y ",
"L N 3 : y L r r I a e e e : u 0 e H e i - $ h > $ 0 q - q q - o $ $ $ 0 Y i u i u a a > r > w - % k ",
"L x M &.E M y c &.*.t v D p C p i 3 r - O % > > ; % % $ q w w - $ $ q X.T Y Z 0 p a L 0 q % q - r T ",
"#.I x v b B b b I *.G c b I t a L M M P s . % = % - > $ - - $ - q q A C.0 X.Y C a u r e > > % $ r T ",
"$.@.b @.b x #.$.I I b c I G &.M ;.P M ` > @ = 4 q * > ; ; * < s h Z 0 u 0 C i i r q > - & ; < $ % r ",
"x 5 @.@.5 2 5 5 x 5 n B 5 3 E M =.M % * f = X 8 l f k ; $ o % d 4 y r i i i i Z r > q ; > w < % & s ",
"6 6 m 9 8 # .   X + . . . & ~ = 3 2 4 4 :.^ = s ` N w O @ O . % P y w i X.o.o.h r j ( _ [ _ [ [ j N ",
"^.' W + 7 <.W 9 8 7 , d < o @ 4 r r d.N.h.f.:.f % * ) g.d.g.) o > [ o.o.o.o.h A O.O.O.O.[ ) [ g.) s ",
"/ d.s.<. .~.' ~ ' N g g s r s y a D Y E U.g.o.e.OXV.Y C Z Y P A o o > > O.C h w w q & w q > - r r > ",
"* s q = s r.) K.d.P P k * y i L Y p C Y T k Y D R D p C p i Z r % O > q q 0 i i j q $ - ; r r k Z O.",
"q q - - % % h A k A L L i D i a C p T e.Z i k r i D C u e e 0 A s w w > q i 0 0 0 0 & w q h j P T g.",
"q w r > h % s f P T P L u p C C p r y T T k a y Z e : 0 q r % j > $ q - 0 0 0 $ 0 $ - w & w w s A j ",
"& ; j r ] r.O f Z Z E i e D D C Z T T ] T P k i h r 0 i q q 0 $ h ) h 0 P 0 0 C i A i - w w ; j Z j ",
"  . q r M.K.% : a i C : 5 L o.o.u.r.e.] T L T P ] T P X.A A A w q s w j X.Y A o.T Z T j w l { { Z k "
};
