/* XPM */
static char *wall3_41684406881[] = {
/* columns rows colors chars-per-pixel */
"50 50 70 1 ",
"  c #000E2E",
". c #0B172D",
"X c #0B182B",
"o c #051536",
"O c #091635",
"+ c #0C1A35",
"@ c #051639",
"# c #091738",
"$ c #06193E",
"% c #0C1C3C",
"& c #101B34",
"* c #111F3C",
"= c #0E213D",
"- c #12213E",
"; c #061742",
": c #081740",
"> c #061A43",
", c #0C1D43",
"< c #071D4C",
"1 c #0B1E4A",
"2 c #111F42",
"3 c #101F4A",
"4 c #0E2144",
"5 c #0E234C",
"6 c #0E284D",
"7 c #132344",
"8 c #182745",
"9 c #152945",
"0 c #1A2945",
"q c #13254B",
"w c #19274B",
"e c #15294D",
"r c #1A2A4D",
"t c #0D2453",
"y c #0F2851",
"u c #0D2758",
"i c #122652",
"p c #142A53",
"a c #1A2D54",
"s c #13275A",
"d c #152C5A",
"f c #1A2E5A",
"g c #163255",
"h c #1D3155",
"j c #16315E",
"k c #1C325C",
"l c #202F56",
"z c #203255",
"x c #21345C",
"c c #25395D",
"v c #172E60",
"b c #192F60",
"n c #163162",
"m c #1C3362",
"M c #1D3866",
"N c #1E3669",
"B c #1E3869",
"V c #213662",
"C c #243964",
"Z c #293B65",
"A c #203769",
"S c #253B6A",
"D c #293E6B",
"F c #253C70",
"G c #2B3F71",
"H c #2A406E",
"J c #244072",
"K c #2B4373",
"L c #294479",
"P c #314776",
/* pixels */
"ggg655pk3qa1q94eq5qi11aafpaqee%%2277qeq6x>%,7*+**&",
"pgppypgZxiqqqqaqqqpapipaxaq34qqe22qwaw6eg74727&&--",
"ppypi15a1;>7511qqw3iq1qskaippfi5qpqpkkamVi177*#772",
"CkkmVkfZCZZVcVpxlxlxVzkkVVVkffxVxxfakkkxVkzaazawqw",
"5pa>2aqqq$>:1fVz2w779e64q5>13qffp6q6qqq4wwe7qe9eww",
"p47eawqzrrqqaaZa777=47945746aaaap44647e4e7==4+49wp",
"4qe>,e74>qaqcfff9799997e,eeq4%wage74442%#--=-799ap",
"q1q6e94ez>z5fxfiw777444eee44qqaaee774=2*-7--7=-rhg",
"SCmfpyi6yssssmNs3;i33ippi5ii5pqpp1:%#:*####+#O#qqq",
"sAGSAPKkVfmAbmSvAlVVVVmCisVkkfafzaallaww8wrrarwwqe",
"mttt<tjkmks6usdmfbbisfkmkfpefappqq747777w8227****+",
"fsbVddkkmjpdxdpps3iffspCiffppqwa1777877wlw7**+++&&",
"6i66skfskpkp44eewqpiepkkyggee6e4rr7=449rrz9++--+XX",
"5pppp6iCZjeehgrelqwxgppkCkp6ppp6477q7654ar4%%--&+O",
"CVmVDDSZCfq57o reap75yppsppksijpwpqq6ispy56qw722-=",
"5tisttss5isqake97hq5epppgjMCkkCkVkkfafkksgkkalahxx",
"kffip3ppaiaqpckp%#7-*%%%q,>7q4aae4qq,,7227%%7q5aa2",
"kiqqpwlw37pqpMpp7-09--7w797,qeaaa4%qq8w792-,,5eaa%",
"aapawazaqzhgxxaa7%7--7779%qq7qkzg7442,2w%*7q77qwq%",
"157q>7:$%14>5qpq7779qe94,qa%qaaxzeeaaqq27r97ewqaw7",
"aaafsxppfakZVxa34,,,%>7qa%764$1q74#$$4rr7q97rr2w9*",
"aspppspkV5iiqpaqappeeaaaqpp4pqqa9aheqagge74>-78w7*",
"eew5546km41qeara7pqpppp6Cppps7qpqqqqdkkksp6q977222",
"aesigydMj5pspp7qisspipkkkkpqasapqepsdfjkepq7q32222",
"fssssdnnnuuuspsadpypppjpyyp66qi4776esgkkk6e47q%987",
"KKKJLKLLLJLMfuidHHHHHDHMCmCHAVVmghappak6544%772%+o",
"mmkjnnnnMjmmNCMkusysddkdfdkkmDAVxkkkkCACkMChCcZzZV",
"jdjjjjnjnddnSHCjpppsyyppsfssyCdsdyipusus6epqsqxsfi",
"bbmbmMmnsvvnNFNdpdpkpdjsdptduAmvp6yypi6s6ep6p4mkp7",
"bbbbnffsfbmmNFnjpjppsypyssusumndpes6ip5qipe6t6Mk61",
"ttttiiii511tusuy>545456pusddsNNf6si6skfappesppMdsq",
"SSSZSVxxCCxCmCmMkHCCZCCZHkCDSVkmCDkkxkxxcaacxmCksp",
"mkfbAxff577qpaafqqq54ypi5727q7*92,2,qaffaeeq>97qpp",
"bdbmmmspfa6waww3eaapppq%7772&*-*&%+7:qffpeeqr7w827",
"dddmNmjpfpgpeq3q2733gkpq2#*22777727223Vf6eqw2w*27-",
"djujMMgspp6pyqkiqaqqkckhwww2*77%79,w:pxlqaewr%w287",
"MMNBFFANNkCdukdfsxsidappa1%13:>p2,1>71aq:#4$%@@@Oo",
"nMbdvvsssmkAksmmfxxxkkkklxapfxkkzxhxzxcfhxecaaaarz",
"6psei3ip617qfzpq754414447449wepp46q7aqawararaekq%-",
"4eeqpqpwewq9aap77%44=====-=+=rheeepq7p3wrq,e4ekw%+",
"77lw32p7qeerhzw47w7%4===-==7rh76weqqrpwa7we764xa7%",
"pqpiiqpi7446pha52qq74444979w9eapeqeaaiqwq777qehq7*",
"ZVVmVsmdkjppkmmsaffakkfahhlfpasq44,22,23227%,7zaaa",
"fisfAbddsdjpdjkffffskma1:q77qp7qe783w3aa2qrw79q9aw",
"p65iVfsppeps6y654eeepka4q777#o%%#O%%,2qw1%#%%2**&+",
"eq6sxxaae6eepeppeeq4ekh>7%*-+O#=-&-7%qaz77q82-OO++",
"aapelfpq677779q4=446pca,77+*09+----*%7aa4777*&+*&%",
"$$17ppq17qqpqqqqeqep6eae,%:+#=-=&+77>4pqq41w7w%**%",
"paazzczfxxVxafpkxkkmMgVxVVkxVCCkhzkgxkxkkkkaafkwar",
">2%115,>,>>5qfqp545451y6iiuuudddiispspju6pi65ii7,%"
};
