/* XPM */
static char *a6828d38180546d7e4b714d9191425b2exwy4x6sj4IbYwEt[] = {
/* columns rows colors chars-per-pixel */
"50 50 209 2 ",
"   c #00061E",
".  c #000623",
"X  c #000B24",
"o  c #000E2A",
"O  c #01142C",
"+  c #0C162D",
"@  c #00192F",
"#  c #0B1A2E",
"$  c #111A2D",
"%  c #021532",
"&  c #021B34",
"*  c #0A1C35",
"=  c #001739",
"-  c #031D3A",
";  c #0B1D39",
":  c #0B1731",
">  c #151D30",
",  c #032136",
"<  c #0D2234",
"1  c #03233C",
"2  c #0B243C",
"3  c #0D283D",
"4  c #052B3E",
"5  c #122235",
"6  c #182033",
"7  c #12243C",
"8  c #1D2739",
"9  c #122C3D",
"0  c #1B2B3D",
"q  c #091E41",
"w  c #032443",
"e  c #0C2542",
"r  c #052A44",
"t  c #0C2A43",
"y  c #032B4B",
"u  c #0C2D4B",
"i  c #042248",
"p  c #132542",
"a  c #132C44",
"s  c #1A2C45",
"d  c #132E4A",
"f  c #1B2D4A",
"g  c #0B3045",
"h  c #03324D",
"j  c #0C334D",
"k  c #0D3B4F",
"l  c #133146",
"z  c #1B3145",
"x  c #13334D",
"c  c #1B324B",
"v  c #16394F",
"b  c #1C394F",
"n  c #032E50",
"m  c #082F50",
"M  c #1E2E50",
"N  c #063352",
"B  c #0B3453",
"V  c #0C3A55",
"C  c #07375A",
"Z  c #0E355A",
"A  c #063B5A",
"S  c #0C3B5B",
"D  c #133553",
"F  c #1B3553",
"G  c #143A55",
"H  c #1B3B55",
"J  c #133C5B",
"K  c #1B3D5B",
"L  c #11375B",
"P  c #232D48",
"I  c #223345",
"U  c #23354C",
"Y  c #22394E",
"T  c #2B3C4F",
"R  c #28324D",
"E  c #223552",
"W  c #233A53",
"Q  c #2A3C54",
"!  c #233E5B",
"~  c #2B3E5A",
"^  c #313F56",
"/  c #303E58",
"(  c #0C3E61",
")  c #143D61",
"_  c #1A3E61",
"`  c #213F61",
"'  c #07405E",
"]  c #0D425E",
"[  c #164256",
"{  c #1C4255",
"}  c #14415D",
"|  c #1C425C",
" . c #254155",
".. c #2B4157",
"X. c #23425C",
"o. c #2B435C",
"O. c #254A5C",
"+. c #32445C",
"@. c #334A5C",
"#. c #20505E",
"$. c #0D4362",
"%. c #0E4866",
"&. c #0F4368",
"*. c #134463",
"=. c #1B4463",
"-. c #154966",
";. c #1C4965",
":. c #144669",
">. c #194669",
",. c #154B6A",
"<. c #1B4C6B",
"1. c #1C516D",
"2. c #17536B",
"3. c #1C4F71",
"4. c #124C71",
"5. c #1C5372",
"6. c #1D5876",
"7. c #1F5A7C",
"8. c #234562",
"9. c #2B4562",
"0. c #244A65",
"q. c #2B4B64",
"w. c #234669",
"e. c #234C6B",
"r. c #2B4D6B",
"t. c #304765",
"y. c #334C65",
"u. c #3B4964",
"i. c #314C69",
"p. c #3B4E6A",
"a. c #225265",
"s. c #2D5467",
"d. c #25526E",
"f. c #2C536C",
"g. c #2C5C6A",
"h. c #265A6F",
"j. c #325266",
"k. c #33536B",
"l. c #3B526B",
"z. c #365A6C",
"x. c #3B596F",
"c. c #234E70",
"v. c #284E72",
"b. c #245373",
"n. c #2B5573",
"m. c #245A77",
"M. c #2B5975",
"N. c #23577A",
"B. c #2A5779",
"V. c #255A7A",
"C. c #2C5B7A",
"Z. c #335573",
"A. c #3A5672",
"S. c #345A74",
"D. c #3A5B75",
"F. c #365778",
"G. c #325C7B",
"H. c #3B5D7A",
"J. c #2F616C",
"K. c #31636C",
"L. c #2C617D",
"P. c #346273",
"I. c #35627C",
"U. c #3C617B",
"Y. c #3D6B7B",
"T. c #3E6270",
"R. c #41536A",
"E. c #425774",
"W. c #435D74",
"Q. c #43627B",
"!. c #4C677E",
"~. c #446D7D",
"^. c #4B687E",
"/. c #416477",
"(. c #50607A",
"). c #375F82",
"_. c #2F6484",
"`. c #346383",
"'. c #3A6582",
"]. c #3D6B83",
"[. c #35698B",
"{. c #3E6C8B",
"}. c #3F768B",
"|. c #446681",
" X c #486786",
".X c #416A84",
"XX c #4B6B82",
"oX c #4B6D8B",
"OX c #456E8A",
"+X c #4C7385",
"@X c #43738C",
"#X c #4A7989",
"$X c #467484",
"%X c #507588",
"&X c #59718D",
"*X c #456F91",
"=X c #437496",
"-X c #407997",
";X c #4F7E90",
":X c #4C7392",
">X c #5A7C94",
",X c #60708A",
"<X c #538195",
"1X c #5A8395",
"2X c #5A889F",
"3X c #58839B",
"4X c #648394",
"5X c #65809B",
"6X c #7290A8",
/* pixels */
": : + : * 7 ..8 7 * O : 2 p d 3 7 < # 0 > < 9 < # T E 7 l a 5 7 < 9 0 5 5 5 8 $ > > $ 8 + $ 0 I 0 ..",
"% 7 c a l.!...b Y a c c e e t t t 2 s 5 2 3 3 a c Q E E j.j.o.l.X. .o.W s 2 f +.+.R.+.^ ~ Q Y ....W.",
"q.D X.K | G 1 1 h K G | f.0.d.w.k.Z.t.e 9.x r h u e e ! K J | G w.e.e.=.Z.|.F.K x u t.Q.H.r.r.F..XU.",
"=.=.a.b.;.V k k j } j B e.b.:.;.n._ F q Z.d.;.[ D D D d G K } a.( Z _ ,.;.=._ ) m Z w.M.).c.v.C.M.m.",
"<.,.d.1.1.-.V j j C j } b.m.b.<.e._ q i c.V ] ] h J u d d u N h y N n V S J *.h ;.'.;.;.F.>.B.G.C.b.",
"<.} <.1.;.J G V u J y B ;.b.C.n.r.` u 9.F.} ] h y u e = - w 4 j D _ B G J K X.B F.r.G K ;.K r.r.F.;.",
"J [ G j x t x x 2 p p - d ! D G H w t.E.8.K G k r 2 * ; O & t t e a ; a F ! ! c 9.f 2 - e F f F t u ",
"0.| H H  .F c f Q U E W Q F o.i.H.E.` t.i.H | K G H E Q u.u.Q U c ~ l.A.U 2 c X.o.o.X.t.E E 9.9.D.r.",
"f.f.=.| 9.9.i.~ E.` Q t.9.t.r.r.r.r.w.w._ J K J G G F d c f M E o.| G H X.D H x x H 8.O.i.r.q.r.0.e.",
"C.C.e.=.n.r.=.u e F ` ! 8.8.K L c.C.B.N.F.v.'.S.`.d.M.f.u p M t.F.I.I.d.d.f.n.d.V C.n.;.J =.=.V.e.B.",
"$.m.m.<.5.<.e.=.i w.w._ n.J *.<.5._.L.,.N.) b.B.m.2.I.I.G.! = q :.b.C.5.2.m.5.m.1.1.m.1.5.,.C.`.b.V.",
"-.2.,.*.-.;.;.h - _ r.Z.G.M.*.b.L.<.,.*.e.) e.b.} -.h.M.Q.d % r.C.N.,.:.1.C.<.;.] <.<.:.<.d.<.5.b.B.",
"[ | | H G v { 3 , t t q.k.O.O.8.| d.| 0.8.u F 9.| | | k.X.p 2 l.K <.=.K 8.w.K G t F H H G X.| K e.e.",
"& & & @ @ O & O * & 7 * & & - & 1 3 & t E M e w 4 1 & ; : & < @ & - % & & % & & - o % - & O & & O % ",
"% = 2 e 3 * 2 ; Q +.t.+.~ f o.i.l.o.l.+.p U a t - 1 a p 7 7 ! H t 2 t a 2 .   . X @ O & O @ O * 7 s ",
"! F ! ` H H o.f e ! E F ~ ! u t d c f d W 9.8.0.0.f.X.E f ~ s.a.f.X.0.y.k.o.~ c s p z a a l l @ 2 7 ",
">.<.B.B.d.B.B.e.i _ =.e.G.C.,.b.f.0.e H ;.h.I.'.'.].I.C.w.r.B.C._.m.B.F.G.D.k.m x J w.f.;.0.;.| % X ",
"C.`.N.,.>.:.S ( y *.,.N.5.6.6.6.M.e.q m 1.2.5.I.C.m.C.B.=._ N.6.7.7._._.c.B.v.L ) n.<.M.b.,.<.;.8.d ",
"_.N.3.4.:.<.:.S y :.<.<.:.:.3.5.c._ i _ c.:.<.,.3.,.3.:.) Z 3.6.4.5.[.@X`.c.w.y ).:X).B.).c.B.<.n.F ",
"<.w.;.J | <.| h - =.;.| *.-.;.=.L L q K n.b.;.[ J *.<.c.Z L ,.:.:.-.<.h.;.=.=.G F. X).F.F.).Z.n.Z.` ",
"e 3 p t 3 2 & O 2 a 3 2 a l a & - & : 7 - a 2 r b { l j d z r g 4 4 { { t 4 @ & * : O O & * - 2 = : ",
"W d c a s F W y.y.l.W.!.(.y.o.O.Y u.+.@.c z O.x.z.g./.z.y.y.@.j.z.#.{ { O. .y.W.R.I 0 I U s a - q s ",
"_ v.e.L w.e.=.w.S.w.G J _ B y G ;.j H = t q.H.>Xg.a.P.a.s.g.1.P.$X#XI.Y.I.<.;.f.Q.Y - o. .f.c.c.0.e.",
"( ( >.3.:.>.*.,.5.<.`.V.N.B.C.b.d.M.f.- H.|.I.@X@XI.}.@X'..Xh.$X<X<X3Xm.-.-.} =.[ 1 3 0.=.w.>.:.:.$.",
"( ( S ,.*.C ( $.%.,.5.<.5.m.b.b.<.d.w.% r K 0.| ].J.h.1.| g.2X<X$X$Xa.} } *.;.`.S.k 1 8.d.w.,.&.$.A ",
"( ( S Z Z ( h A $.] ' 2.*.,.:.<.} [ F = F K H g M.Y.[ k g g { 1X>X~.G k } S J .X8.1 & [ K ;.( S ,.,.",
"G J B D x D G G G O.} } } G K J G G W % t  .q.x.T.+Xz.O.x./.#XT.{ /.H k B G K | q.b t X.G J *.<.J J ",
"q % - - @ ; 2 e t r 1 g 4 1 1 - t & % o & % @ 3 2 2 3 l * 2 , 4 < l & & , & - x ! H q.x 1 w w u w e ",
"2 & @ O . . . o X - & 2 e 3 o o % O . p d & 2 @   @   . X @ , 2 , 3 , & 2 2 & x b F H l v r r 1   . ",
"q.i.p p p 7 E o.! x 0.x.H.F.H.|.f.0.Z.i.q.q.b l q.X.+.t.o.k.s.S.Q.0.k.XXk.k.Q.H.F.f.0.G Z.U.D.D.o $ ",
";.<.r.r.` ` d B J ;.*.b.1.e.Z S *.>.;.c.n.r.[ V g.H d M D.e.G.d.n.C.I.D.U.].S.S.e.B.B.C.`.M.n.r.7 E ",
"2.,.<.>.B G ) ) ( <.1.5.4.,.3.,.`.b.C.( >.{.<.'.*XOX_ D n.V.I.M.B.=X}.C.M.M.I.I.M._.B.5.<.M.`.'.= f ",
",.,.-.*.y n ) S ) ) C $.5.%.6.L.b.=.c.*.) b.;.<.0.n.r J <.C.=XC.C.{.B.M.d.| ;.n.d.<.-.L.2.2.M.].q q ",
"} } J [ i B y L Z C *.} 5.-.,.-.=.e.'.<.) N B J 8.r.j | s.M.:XF.f.e.<.e.r @ @ x J 0.;.d.] ] =.| e a ",
"d x t u 2 F K K K K G D K j G H v x 0.{ g X.a ; + O s d g 3 H D H H c G p c c & p b d D t t t e b F ",
"F c d H o.y.Q.XXQ.k.>X3XH.8.X.{ { k.s.0.U.>X&Xp.+.~ +.p.y.l , c 0.f.z.U.A.x.R.P 7 s d H d d E o.y.k.",
"| x G H q.G H f.f.[ | I.;.G 0.H H 1 1 S } J J F d K t D G G 8.D ;.;.I.M.M.q.r.F ` Z.F.F.r.n.Z.t.r.i.",
"J J y w G G j =.G V V ;.} } ] e.0.= e.=.b.m.).) L e.| | =.8.r.*.b.$.:.:.C.*._ i w.>.*.V N S J m B L ",
"y ;.B q D y w u G k J *.L C $.} D % K '.OX<.b.V.'.C.`.M.[ M.d.V C :.,.,.C.n.r.= D Z S A C A Z S V C ",
"B J 8.u K - - A.8.D 8.Z J N Z ;.- % K OX`.-.) :.>.;.<.m.] C.;.h ( A $.-.<.e._ = >.L ( A A V C V B C ",
"r 1  .! y.e a W e e r K H G B D 2 - D J *.S ;.V S =.} ;.-.d.e.S N C V V J =.D i u J S V V V N r r D ",
"v c l z c 7 a 2 f a e - u x G u - c ! H.e.[ G r.| 0.| k [ 0.;.V <.S N V G u u D m d B u y r w = - 2 ",
"z Y Y a U p.R.o.X.c 2 3 - t c F ~ j.U.XXQ.q.O.9.Y U c W l t F H 8.0.S.P.D.z.W.l.i.d & O O @ 7 f W c ",
"@.4X@.9 p @.H  .X.q.0.S.k.q.! | X.q.| c t x f s R ~ E z  .!.l.Z.f.a.} g.S.U.XX6X>XA.o.F ! +.(.,XA.o.",
"4X~.%Xz.[ x g B V N h S e.} } d.V.<.<.S =.q % % . % q f K J J b.-.] 6.m.2.} J } ;.} ;.S J H ! d e = ",
"Y.K.g.a.[ B N y N *.-.<.<.5.b.-.%.A $.1.S v.i.! M - - e e.V $.:.7.$.,.4.5.$.] :.<.$.-.A } ;.` u u r ",
"K.K.#., G y y Z y S ) 3.S -.,.} N C A $.<.;.q.oXW.H Z.;.=.-.A $.&.&.2.}.m.5.<.5.5.%.' ' ] } L i =.V ",
"J.~.s.4 - w d q u L m B V N k ] B B B N V B G X.8.r.q.;.*.<.S :.<.*.3._.[.m.L.} *.-.] $.S S D y [ V ",
"T.j. .9 @ O * s s p p 3 2 t u x t a t r x t e e u S.0.g.d.J | J =.=.<.;.3.n.U.G 0.k.f.;.B x D d x r ",
"9 9 0  .T U P R ^ ^ +.+.Q Y  .o.o.o.s 7 F b ~ o.9.G.D.k.a.f.| & x B ;.} S J f.s.k.q.x 1 % r ! q.y.q."
};
